# xmcd
#
# Track frame offsets: 
#        150
#        13635
#        25722
#        39527
#        46877
#        57354
#        70720
#        84126
#        95479
#        106808
#        116621
#        128329
#        141080
#        153356
#        166864
#        177365
#        195929
#        206643
#        217617
#        227478
#
# Disc length: 3215 seconds
#
# Revision: 3
# Processed by: cddbd v1.5.2PL0 Copyright (c) Steve Scherf et al.
# Submitted via: ExactAudioCopy v1.3
#
DISCID=ee0c8d14
DTITLE=Les Brown - Perdido_CD4
DYEAR=2005
DGENRE=Jazz
TTITLE0=One O'Clock Jump
TTITLE1=Rain
TTITLE2=Moonlight in Vermont
TTITLE3=Lulu's Back in Town
TTITLE4=Brown's Little  Jug
TTITLE5=Montoona Clipper
TTITLE6=St. Louis Blues
TTITLE7=Spring is Here
TTITLE8=Someday Sweetheart
TTITLE9=Flying Home
TTITLE10=Green  Eyes
TTITLE11=Ramona
TTITLE12=Don't Take Your Love From Me
TTITLE13=Happy Hooligan
TTITLE14=I've Got The Right To Sing The Blues
TTITLE15=Caravan
TTITLE16=When I Take My Sugar To Tea
TTITLE17=You Are My Sunshine
TTITLE18=If You Would Only Be Mine
TTITLE19=Stompin' At The Savoy
EXTD=
EXTT0=
EXTT1=
EXTT2=
EXTT3=
EXTT4=
EXTT5=
EXTT6=
EXTT7=
EXTT8=
EXTT9=
EXTT10=
EXTT11=
EXTT12=
EXTT13=
EXTT14=
EXTT15=
EXTT16=
EXTT17=
EXTT18=
EXTT19=
PLAYORDER=
